<svg width="36" height="36" viewBox="0 0 36 36" fill="none" xmlns="http://www.w3.org/2000/svg">
<circle cx="18" cy="18" r="18" fill="#FF6F0F"/>
<path d="M15.8477 16.748H17.3027C17.8171 16.748 18.2402 16.6602 18.5723 16.4844C18.9108 16.3021 19.1615 16.0547 19.3242 15.7422C19.4935 15.4232 19.5781 15.0553 19.5781 14.6387C19.5781 14.2285 19.5033 13.8737 19.3535 13.5742C19.2038 13.2682 18.9759 13.0339 18.6699 12.8711C18.3704 12.7018 17.9863 12.6172 17.5176 12.6172C17.14 12.6172 16.7917 12.6921 16.4727 12.8418C16.1602 12.9915 15.9095 13.2064 15.7207 13.4863C15.5384 13.7598 15.4473 14.0885 15.4473 14.4727H12.8594C12.8594 13.7044 13.0612 13.0306 13.4648 12.4512C13.875 11.8652 14.4284 11.4062 15.125 11.0742C15.8216 10.7422 16.5996 10.5762 17.459 10.5762C18.3965 10.5762 19.2168 10.7324 19.9199 11.0449C20.6296 11.3509 21.1797 11.8034 21.5703 12.4023C21.9674 13.0013 22.166 13.7435 22.166 14.6289C22.166 15.0521 22.0651 15.4753 21.8633 15.8984C21.668 16.3151 21.3783 16.6927 20.9941 17.0312C20.6165 17.3633 20.151 17.6335 19.5977 17.8418C19.0508 18.0436 18.4225 18.1445 17.7129 18.1445H15.8477V16.748ZM15.8477 18.7402V17.3633H17.7129C18.5137 17.3633 19.207 17.4577 19.793 17.6465C20.3854 17.8288 20.8737 18.0892 21.2578 18.4277C21.6419 18.7598 21.9251 19.1471 22.1074 19.5898C22.2962 20.0326 22.3906 20.5078 22.3906 21.0156C22.3906 21.6797 22.2669 22.2721 22.0195 22.793C21.7721 23.3073 21.4238 23.7435 20.9746 24.1016C20.5319 24.4596 20.0111 24.7331 19.4121 24.9219C18.8132 25.1042 18.1654 25.1953 17.4688 25.1953C16.8633 25.1953 16.2741 25.1139 15.7012 24.9512C15.1348 24.7819 14.6237 24.5312 14.168 24.1992C13.7122 23.8607 13.3509 23.4375 13.084 22.9297C12.8171 22.4154 12.6836 21.8197 12.6836 21.1426H15.2715C15.2715 21.5332 15.3659 21.8815 15.5547 22.1875C15.75 22.4935 16.0169 22.7344 16.3555 22.9102C16.7005 23.0794 17.0879 23.1641 17.5176 23.1641C17.9928 23.1641 18.3997 23.0794 18.7383 22.9102C19.0833 22.7344 19.347 22.487 19.5293 22.168C19.7116 21.8424 19.8027 21.4551 19.8027 21.0059C19.8027 20.472 19.7018 20.0391 19.5 19.707C19.2982 19.375 19.0085 19.1309 18.6309 18.9746C18.2598 18.8184 17.8171 18.7402 17.3027 18.7402H15.8477Z" fill="white"/>
</svg>
