<svg width="36" height="36" viewBox="0 0 36 36" fill="none" xmlns="http://www.w3.org/2000/svg">
<circle cx="18" cy="18" r="18" fill="#FF6F0F"/>
<path d="M22.6543 22.9688V25H13.0254V23.2617L17.6445 18.2715C18.1263 17.7246 18.5072 17.2493 18.7871 16.8457C19.0671 16.4421 19.2656 16.0775 19.3828 15.752C19.5065 15.4199 19.5684 15.1042 19.5684 14.8047C19.5684 14.3685 19.4902 13.9876 19.334 13.6621C19.1777 13.3301 18.9499 13.0729 18.6504 12.8906C18.3574 12.7083 17.9961 12.6172 17.5664 12.6172C17.0911 12.6172 16.6842 12.7279 16.3457 12.9492C16.0137 13.1641 15.7598 13.4635 15.584 13.8477C15.4147 14.2318 15.3301 14.6712 15.3301 15.166H12.7422C12.7422 14.3262 12.9375 13.5612 13.3281 12.8711C13.7188 12.1745 14.2786 11.6178 15.0078 11.2012C15.737 10.7845 16.6029 10.5762 17.6055 10.5762C18.582 10.5762 19.4089 10.7389 20.0859 11.0645C20.763 11.3835 21.2773 11.8392 21.6289 12.4316C21.9805 13.0241 22.1562 13.7305 22.1562 14.5508C22.1562 15.0065 22.0814 15.4557 21.9316 15.8984C21.7819 16.3411 21.5703 16.7806 21.2969 17.2168C21.0299 17.6465 20.7109 18.0827 20.3398 18.5254C19.9688 18.9681 19.5553 19.4206 19.0996 19.8828L16.3262 22.9688H22.6543Z" fill="white"/>
</svg>
