<svg width="57" height="85" viewBox="0 0 57 85" fill="none" xmlns="http://www.w3.org/2000/svg">
<path d="M10.0874 56.9493H54.4668V2.5373H10.0874C8.01108 2.5373 6.12286 3.38931 4.75289 4.76187C3.38358 6.13377 2.53318 8.02622 2.53318 10.1064V60.3747L2.53986 60.3674L2.5532 60.3527L2.55987 60.3453L2.56653 60.338L2.57321 60.3306L2.57989 60.3233L2.58655 60.3159L2.59322 60.3086L2.59988 60.3012L2.60656 60.2939L2.61323 60.2865L2.61989 60.2792L2.62657 60.2718L2.62991 60.2678L2.63323 60.2645L2.63991 60.2571L2.64658 60.2498L2.65324 60.2424L2.65992 60.2351L2.66658 60.2277L2.67326 60.2204L2.69327 60.1983L2.69993 60.191L2.7066 60.1836L2.71261 60.1769L2.71328 60.1763L2.71994 60.1689L2.72662 60.1616L2.73328 60.1542L2.73995 60.1469L2.75997 60.1255L2.76663 60.1181L2.7733 60.1108L2.77998 60.1034L2.78664 60.0961L2.79332 60.0887L2.79532 60.0867L2.80064 60.0814L2.80732 60.074L2.814 60.0667L2.85467 60.0246L2.86135 60.0172L2.86801 60.0099L2.87468 60.0025L2.87936 59.9978L2.88203 59.9952L2.88869 59.9878L2.95071 59.925L2.95806 59.9176L2.96473 59.911L3.05076 59.8254L3.13814 59.7412L3.22618 59.6584L3.31556 59.5762L3.4056 59.4947L3.49698 59.4145L3.58902 59.3356L3.68174 59.2574L3.77577 59.1806L3.87048 59.1051L3.96654 59.0302L4.06324 58.9567L4.16062 58.8846L4.25933 58.813L4.35871 58.7429L4.45876 58.6741L4.56014 58.6066L4.66219 58.5397L4.76491 58.4743L4.86828 58.4101L4.973 58.3473L5.07838 58.2858L5.18442 58.2257L5.29115 58.1669L5.39854 58.1094L5.50725 58.0526L5.61597 57.9971L5.72602 57.943L5.83673 57.8902L5.94813 57.8388L6.06018 57.7886L6.17289 57.7399L6.28627 57.6924L6.40034 57.6463L6.51506 57.6015L6.63045 57.5581L6.7465 57.516L6.86322 57.4752L6.98061 57.4358L7.09867 57.3984L7.21739 57.3623L7.33677 57.3276L7.45682 57.2941L7.57755 57.2621L7.69828 57.2313L7.81966 57.2019L7.94172 57.1745L8.06445 57.1485L8.18783 57.1237L8.31123 57.1004L8.43529 57.079L8.56001 57.0589L8.68541 57.0402L8.81079 57.0235L8.93685 57.0081L9.06358 56.9941L9.1903 56.9821L9.31771 56.9714L9.44576 56.962L9.57381 56.9547L9.70255 56.9487L9.83194 56.9447L9.96133 56.942L10.0914 56.9413L10.0874 56.9493ZM32.8067 24.7001V20.3853C32.8067 19.1998 32.3218 18.1213 31.5408 17.3388C30.7597 16.5563 29.6832 16.0705 28.5 16.0705C27.3168 16.0705 26.2403 16.5563 25.4593 17.3388C24.6782 18.1213 24.1933 19.1998 24.1933 20.3853V24.7001H32.8074H32.8067ZM21.6601 24.7001V20.3853C21.6601 18.4995 22.4292 16.7862 23.6684 15.5446C24.9077 14.3037 26.6178 13.5325 28.5 13.5325C30.3822 13.5325 32.0923 14.303 33.3316 15.5446C34.5702 16.7862 35.3399 18.4995 35.3399 20.3853V24.7001H39.3304V46.4012H17.6703V24.7001H18.9369H21.6608H21.6601ZM14.4821 67.0558H20.4669H26.4517V74.6249H54.4668V59.4873H10.0874L9.99001 59.488L9.8933 59.49L9.79659 59.4926L9.70055 59.4973L9.60449 59.5027L9.50845 59.5094L9.41308 59.5174L9.31837 59.5267L9.22365 59.5368L9.12894 59.5481L9.03491 59.5608L8.94152 59.5748L8.84815 59.5895L8.75543 59.6056L8.66273 59.623L8.57068 59.641L8.47931 59.6604L8.38792 59.6811L8.29722 59.7031L8.20651 59.7259L8.11648 59.7499L8.02709 59.7746L7.93771 59.8007L7.84902 59.8281L7.76097 59.8562L7.67292 59.8856L7.58555 59.9156L7.49885 59.9471L7.41214 59.9791L7.3261 60.0125L7.24072 60.0473L7.15602 60.0827L7.07198 60.1188L6.98794 60.1562L6.90456 60.195L6.82186 60.2344L6.73982 60.2752L6.65845 60.3166L6.57708 60.3587L6.49638 60.4021L6.41635 60.4462L6.33697 60.4917L6.25827 60.5378L6.18023 60.5845L6.10285 60.6327L6.02616 60.6814L5.95013 60.7309L5.87475 60.7817L5.79939 60.8331L5.72535 60.8853L5.65131 60.9387L5.57862 60.9928L5.50591 61.0476L5.43389 61.1038L5.36252 61.1606L5.29181 61.218L5.22245 61.2762L5.15375 61.3356L5.08571 61.3958L5.01835 61.4566L4.95165 61.5181L4.88562 61.5809L4.82026 61.6437L4.75556 61.7079L4.69153 61.7727L4.62884 61.8382L4.56615 61.9043L4.50478 61.9711L4.44409 62.0386L4.38405 62.1068L4.3247 62.1756L4.26668 62.2458L4.20931 62.3166L4.15261 62.3881L4.09659 62.4603L4.0419 62.5331L3.98787 62.6066L3.93451 62.6808L3.8825 62.7557L3.83114 62.8312L3.78045 62.9067L3.73109 62.9829L3.6824 63.0597L3.63437 63.1372L3.58701 63.2154L3.541 63.2943L3.49565 63.3738L3.45161 63.454L3.40827 63.5348L3.36626 63.6163L3.3249 63.6979L3.2842 63.7801L3.24486 63.8629L3.20617 63.9465L3.16882 64.0307L3.13215 64.1149L3.09679 64.1997L3.06211 64.2853L3.02876 64.3715L2.99675 64.4577L2.9654 64.5445L2.93471 64.6321L2.90536 64.7203L2.87736 64.8085L2.85 64.8974L2.82399 64.9862L2.79866 65.0758L2.77464 65.166L2.75195 65.2562L2.72996 65.3471L2.70928 65.4386L2.68993 65.5302L2.67125 65.6224L2.65391 65.7146L2.6379 65.8075L2.62323 65.9004L2.60923 65.9939L2.59656 66.0882L2.58521 66.1824L2.57521 66.2773L2.56588 66.3722L2.55787 66.4677L2.55119 66.5633L2.54587 66.6595L2.5412 66.7557L2.53852 66.8526L2.53652 66.9495L2.53585 67.0471C2.53585 69.1273 3.38625 71.0191 4.75623 72.3917C6.12554 73.7636 8.01442 74.6162 10.0907 74.6162H14.4855V67.0471L14.4821 67.0558ZM26.4517 77.1622V85L20.4669 80.2401L14.4821 85V77.1622H10.0874C7.31209 77.1622 4.79025 76.0256 2.96206 74.1946C1.13454 72.3636 0 69.8363 0 67.0558V10.1064C0 7.3259 1.13454 4.79862 2.96206 2.96765C4.78958 1.13667 7.31209 0 10.0874 0H57V56.9493V59.4866V77.1616H26.4517V77.1622Z" fill="#2A2A2A"/>
</svg>
