<svg width="107" height="77" viewBox="0 0 107 77" fill="none" xmlns="http://www.w3.org/2000/svg">
<path d="M27.7938 74.4716C29.3912 74.4716 30.8363 73.8316 31.8833 72.7975C32.9296 71.7633 33.577 70.3343 33.577 68.7554C33.577 67.1766 32.9296 65.7482 31.8833 64.7134C30.837 63.6792 29.3912 63.0393 27.7938 63.0393C26.197 63.0393 24.7513 63.6792 23.7043 64.7134C22.658 65.7475 22.0105 67.1766 22.0105 68.7554C22.0105 70.3336 22.658 71.7627 23.7043 72.7975C24.7506 73.8316 26.1964 74.4716 27.7938 74.4716ZM98.6587 32.8178C97.0619 32.8178 95.6161 33.4578 94.5692 34.4919C93.5229 35.5261 92.8754 36.9551 92.8754 38.534C92.8754 40.1122 93.5229 41.5412 94.5692 42.576C95.6154 43.6102 97.0613 44.2501 98.6587 44.2501C100.256 44.2501 101.701 43.6102 102.748 42.576C103.794 41.5419 104.442 40.1128 104.442 38.534C104.442 36.9551 103.794 35.5267 102.748 34.4919C101.702 33.4578 100.256 32.8178 98.6587 32.8178ZM92.7609 32.704C94.27 31.2123 96.3559 30.2887 98.6587 30.2887C100.961 30.2887 103.047 31.2117 104.556 32.704C106.066 34.1956 107 36.2572 107 38.5333C107 40.8094 106.066 42.871 104.556 44.3626C103.047 45.8543 100.961 46.7779 98.6587 46.7779C96.3559 46.7779 94.27 45.8549 92.7609 44.3626C91.5367 43.1527 90.6912 41.5678 90.415 39.7972H66.5039V40.1834C66.5039 41.0944 66.4116 41.9814 66.2324 42.837H80.4836V60.6074C82.2744 60.8798 83.8778 61.7155 85.1027 62.9261C86.6118 64.4177 87.5462 66.4794 87.5462 68.7554C87.5462 71.0315 86.6125 73.0931 85.1027 74.5848C83.5935 76.0764 81.5077 77 79.2049 77C76.9021 77 74.8163 76.0771 73.3071 74.5848C71.798 73.0931 70.8635 71.0315 70.8635 68.7554C70.8635 66.4794 71.7973 64.4177 73.3071 62.9261C74.5313 61.7161 76.1347 60.8804 77.9262 60.6074V45.3661H65.4091C65.238 45.745 65.0466 46.1146 64.8371 46.4736V46.4782C63.7531 48.3341 62.1685 49.8983 60.1574 51.0463H60.1527L53.4997 54.8427L46.8473 51.0463H46.8426C44.8356 49.901 43.2517 48.3354 42.165 46.4769L42.1629 46.4782C41.9521 46.118 41.7607 45.7464 41.5889 45.3661H29.0738V60.6074C30.8646 60.8798 32.4681 61.7155 33.6929 62.9261C35.202 64.4177 36.1365 66.4794 36.1365 68.7554C36.1365 71.0315 35.2027 73.0931 33.6929 74.5848C32.1838 76.0764 30.0979 77 27.7951 77C25.4923 77 23.4065 76.0771 21.8973 74.5848C20.3882 73.0931 19.4537 71.0315 19.4537 68.7554C19.4537 66.4794 20.3875 64.4177 21.8973 62.9261C23.1215 61.7161 24.725 60.8804 26.5164 60.6074V42.837H40.767C40.5884 41.982 40.4961 41.095 40.4961 40.1834V39.7972H16.585C16.3095 41.5672 15.464 43.152 14.2391 44.3626C12.73 45.8543 10.6442 46.7779 8.34137 46.7779C6.03858 46.7779 3.95273 45.8549 2.44359 44.3626C0.934455 42.871 0 40.8094 0 38.5333C0 36.2572 0.933781 34.1956 2.44359 32.704C3.95273 31.2123 6.03858 30.2887 8.34137 30.2887C10.6442 30.2887 12.73 31.2117 14.2391 32.704C15.4633 33.9139 16.3088 35.4988 16.585 37.2694H40.4961V34.163H26.5164V16.3926C24.7256 16.1202 23.1222 15.2845 21.8973 14.0739C20.3882 12.5823 19.4537 10.5206 19.4537 8.24458C19.4537 5.96851 20.3875 3.90687 21.8973 2.41524C23.4065 0.923611 25.4923 0 27.7951 0C30.0979 0 32.1838 0.922945 33.6929 2.41524C35.202 3.90687 36.1365 5.96851 36.1365 8.24458C36.1365 10.5206 35.2027 12.5823 33.6929 14.0739C32.4687 15.2839 30.8653 16.1196 29.0738 16.3926V31.6338H40.4955V25.8138L53.1702 22.457H53.8298L66.5045 25.8138V31.6338H77.9262V16.3926C76.1354 16.1202 74.532 15.2845 73.3071 14.0739C71.798 12.5823 70.8635 10.5206 70.8635 8.24458C70.8635 5.96851 71.7973 3.90687 73.3071 2.41524C74.8163 0.923611 76.9021 0 79.2049 0C81.5077 0 83.5935 0.922945 85.1027 2.41524C86.6118 3.90687 87.5462 5.96851 87.5462 8.24458C87.5462 10.5206 86.6125 12.5823 85.1027 14.0739C83.8785 15.2839 82.2751 16.1196 80.4836 16.3926V34.163H66.5039V37.2694H90.415C90.6905 35.4994 91.5361 33.9146 92.7609 32.704ZM12.4288 34.4919C11.3825 33.4578 9.93676 32.8178 8.33936 32.8178C6.74264 32.8178 5.29681 33.4578 4.24985 34.4919C3.20356 35.5261 2.5561 36.9551 2.5561 38.534C2.5561 40.1122 3.20356 41.5412 4.24985 42.576C5.29614 43.6102 6.74196 44.2501 8.33936 44.2501C9.93676 44.2501 11.3819 43.6102 12.4288 42.576C13.4751 41.5419 14.1226 40.1128 14.1226 38.534C14.1226 36.9551 13.4751 35.5267 12.4288 34.4919ZM75.1154 72.7981C76.1617 73.8323 77.6075 74.4722 79.2049 74.4722C80.8023 74.4722 82.2474 73.8323 83.2944 72.7981C84.3407 71.764 84.9881 70.335 84.9881 68.7561C84.9881 67.1772 84.3407 65.7489 83.2944 64.714C82.2481 63.6799 80.8023 63.04 79.2049 63.04C77.6082 63.04 76.1624 63.6799 75.1154 64.714C74.0691 65.7482 73.4217 67.1772 73.4217 68.7561C73.4217 70.3343 74.0691 71.7633 75.1154 72.7981ZM79.2049 2.52911C77.6082 2.52911 76.1624 3.16904 75.1154 4.2032C74.0691 5.23735 73.4217 6.66638 73.4217 8.24524C73.4217 9.82344 74.0691 11.2525 75.1154 12.2873C76.1617 13.3214 77.6075 13.9614 79.2049 13.9614C80.8023 13.9614 82.2474 13.3214 83.2944 12.2873C84.3407 11.2531 84.9881 9.82411 84.9881 8.24524C84.9881 6.66638 84.3407 5.23801 83.2944 4.2032C82.2481 3.16904 80.8023 2.52911 79.2049 2.52911ZM31.8833 4.2032C30.837 3.16904 29.3912 2.52911 27.7938 2.52911C26.197 2.52911 24.7513 3.16904 23.7043 4.2032C22.658 5.23735 22.0105 6.66638 22.0105 8.24524C22.0105 9.82344 22.658 11.2525 23.7043 12.2873C24.7506 13.3214 26.1964 13.9614 27.7938 13.9614C29.3912 13.9614 30.8363 13.3214 31.8833 12.2873C32.9296 11.2531 33.577 9.82411 33.577 8.24524C33.577 6.66638 32.9296 5.23801 31.8833 4.2032Z" fill="#2A2A2A"/>
</svg>
