<svg width="68" height="77" viewBox="0 0 68 77" fill="none" xmlns="http://www.w3.org/2000/svg">
<path d="M3.10774 54.0511H7.43895V43.8608C2.8378 39.2075 0 32.8315 0 25.7996C0 18.6752 2.91232 12.2253 7.62024 7.55663C12.3282 2.88801 18.833 0 26.0168 0C33.2006 0 39.7055 2.88801 44.4134 7.55663C49.1213 12.2253 52.0336 18.6758 52.0336 25.7996C52.0336 32.8315 49.1958 39.2068 44.5947 43.8608V54.0511H50.2011V54.5738C53.5855 50.934 56.2957 46.7741 58.2477 42.2873C59.9151 38.453 61.0277 34.3811 61.532 30.1912C60.8209 29.9488 60.1837 29.5486 59.6632 29.0326L59.6585 29.0279C58.7742 28.1509 58.2269 26.9403 58.2269 25.6065C58.2269 24.272 58.7742 23.0621 59.6585 22.1851L59.6632 22.1805C60.5476 21.3035 61.7684 20.7608 63.1135 20.7608C64.4592 20.7608 65.6793 21.3035 66.5636 22.1805L66.5683 22.1851C67.4527 23.0621 68 24.272 68 25.6065C68 26.941 67.4527 28.1509 66.5683 29.0279L66.5636 29.0326C65.8968 29.6938 65.0387 30.1653 64.0791 30.357C63.5533 34.8339 62.3701 39.1875 60.5879 43.2848C58.1772 48.8264 54.6673 53.9019 50.2011 58.1823V77H1.83254V54.0518H3.10774V54.0511ZM64.768 23.9651C64.3456 23.5475 63.7608 23.2892 63.1135 23.2892C62.4661 23.2892 61.8805 23.5475 61.4582 23.9651C61.0371 24.3839 60.7766 24.9639 60.7766 25.6058C60.7766 26.2478 61.0371 26.8284 61.4582 27.2473C61.8805 27.6648 62.4655 27.9232 63.1135 27.9232C63.7608 27.9232 64.3456 27.6648 64.768 27.2473C65.1891 26.8284 65.4496 26.2484 65.4496 25.6058C65.4496 24.9639 65.1891 24.3839 64.768 23.9651ZM29.6658 59.1905L27.6143 65.5252H30.8087L22.3685 71.8599L24.4207 65.5252H21.2263L29.6664 59.1905H29.6658ZM26.0168 20.9539C27.3625 20.9539 28.5826 21.4966 29.467 22.3736L29.4717 22.3782C30.3561 23.2552 30.9033 24.4652 30.9033 25.7996C30.9033 27.1341 30.3561 28.344 29.4717 29.221L29.467 29.2257C28.5826 30.1027 27.3625 30.6454 26.0168 30.6454C24.6711 30.6454 23.451 30.1027 22.5666 29.2257L22.5619 29.221C21.6775 28.344 21.1303 27.1341 21.1303 25.7996C21.1303 24.4652 21.6775 23.2552 22.5619 22.3782L22.5666 22.3736C23.451 21.4966 24.6718 20.9539 26.0168 20.9539ZM27.6714 24.1588C27.249 23.7413 26.6641 23.483 26.0168 23.483C25.3695 23.483 24.7839 23.7413 24.3615 24.1588C23.9405 24.5777 23.68 25.1577 23.68 25.8003C23.68 26.4422 23.9405 27.0222 24.3615 27.4411C24.7839 27.8586 25.3688 28.117 26.0168 28.117C26.6641 28.117 27.249 27.8586 27.6714 27.4411C28.0924 27.0222 28.353 26.4422 28.353 25.8003C28.353 25.1584 28.0924 24.5777 27.6714 24.1588ZM9.98864 46.1235V54.0511H42.045V46.1229C37.6271 49.5536 32.063 51.5992 26.0168 51.5992C19.9706 51.5992 14.4065 49.5536 9.98864 46.1229V46.1235ZM42.6104 9.34457C38.3638 5.13342 32.4968 2.52909 26.0168 2.52909C19.5361 2.52909 13.6692 5.13409 9.42258 9.34457C5.17598 13.5557 2.54972 19.3737 2.54972 25.8003C2.54972 32.2269 5.17665 38.0449 9.42258 42.2553C13.6692 46.4665 19.5361 49.0708 26.0168 49.0708C32.4975 49.0708 38.3645 46.4658 42.6104 42.2553C46.857 38.0442 49.4832 32.2262 49.4832 25.8003C49.4832 19.3737 46.8563 13.5557 42.6104 9.34457ZM47.6507 56.5802H44.5947H43.3195H7.43826H4.38226V74.4709H47.6507V56.5802Z" fill="#2A2A2A"/>
</svg>
