<svg width="61" height="78" viewBox="0 0 61 78" fill="none" xmlns="http://www.w3.org/2000/svg">
<path d="M31.2036 32.5482L31.8905 29.0973L32.5773 32.5482C33.846 38.922 38.804 43.9039 45.1478 45.1787L48.5822 45.8689L45.1478 46.559C38.8047 47.8338 33.846 52.8158 32.5773 59.1902L31.8905 62.6411L31.2036 59.1902C29.935 52.8164 24.9769 47.8338 18.6338 46.559L15.1995 45.8689L18.6338 45.1787C24.9769 43.9039 29.935 38.922 31.2036 32.5482ZM58.4574 10.0803L30.4993 2.55287L2.54128 10.0803V43.0644C2.54128 48.0894 3.77576 52.7505 6.08808 56.7752C8.40509 60.808 11.8046 64.2152 16.1287 66.7237H16.1334L30.4993 75.0576L44.8653 66.7237H44.87C49.194 64.2152 52.5929 60.808 54.9106 56.7752L54.9126 56.7766C57.2236 52.7525 58.4574 48.0914 58.4574 43.0644V10.0803ZM30.8274 0L61 8.12343V43.0644C61 48.5341 59.6443 53.6284 57.1057 58.048V58.0527C54.5718 62.4622 50.8583 66.1869 46.1353 68.9267L46.1366 68.9287L30.4993 78L14.8627 68.9287L14.8641 68.9267C10.1417 66.1862 6.42817 62.4622 3.89426 58.0527C1.35499 53.6337 0 48.5374 0 43.0644V8.12343L30.1726 0H30.828H30.8274ZM45.5709 19.0661L45.7999 17.9158L46.0288 19.0661C46.4519 21.1911 48.1042 22.8514 50.219 23.2765L51.3638 23.5066L50.219 23.7366C48.1048 24.1611 46.4519 25.822 46.0288 27.947L45.7999 29.0973L45.5709 27.947C45.1478 25.822 43.4956 24.1618 41.3808 23.7366L40.236 23.5066L41.3808 23.2765C43.4949 22.8514 45.1478 21.1911 45.5709 19.0661ZM17.6376 16.8462L17.9811 15.1208L18.3245 16.8462C18.9592 20.0328 21.4382 22.5244 24.6094 23.1615L26.3266 23.5066L24.6094 23.8516C21.4375 24.4887 18.9585 26.9803 18.3245 30.1669L17.9811 31.8923L17.6376 30.1669C17.0037 26.9797 14.524 24.4887 11.3527 23.8516L9.63556 23.5066L11.3527 23.1615C14.524 22.5238 17.0037 20.0328 17.6376 16.8462Z" fill="#2A2A2A"/>
</svg>
