<svg width="263" height="56" viewBox="0 0 263 56" fill="none" xmlns="http://www.w3.org/2000/svg">
<path d="M262.307 25.3336V20.7205H256.578V13.5487L256.385 13.6081L251.005 15.2542L250.899 15.2866V20.7205H242.406V17.6936C242.406 16.2841 242.721 15.2054 243.342 14.486C243.959 13.7752 244.842 13.4139 245.967 13.4139C246.776 13.4139 247.614 13.6046 248.456 13.9804L248.668 14.0746V9.21638L248.568 9.1799C247.782 8.8973 246.712 8.75488 245.387 8.75488C243.716 8.75488 242.197 9.11837 240.874 9.839C239.549 10.5606 238.506 11.5908 237.777 12.9007C237.049 14.2091 236.68 15.7202 236.68 17.3923V20.7205H232.691V25.3336H236.68V44.7675H242.406V25.3336H250.899V37.6836C250.899 42.7699 253.298 45.3476 258.029 45.3476C258.807 45.3476 259.625 45.2563 260.461 45.0777C261.311 44.8947 261.89 44.7117 262.231 44.5163L262.307 44.4719V39.816L262.074 39.9701C261.763 40.1776 261.376 40.3466 260.922 40.4722C260.466 40.6004 260.086 40.6648 259.791 40.6648C258.683 40.6648 257.863 40.366 257.354 39.7767C256.839 39.1819 256.578 38.1416 256.578 36.6867V25.3336H262.307ZM219.903 40.6652C217.825 40.6652 216.186 39.976 215.031 38.6184C213.869 37.2539 213.281 35.3087 213.281 32.8372C213.281 30.2874 213.869 28.2917 215.032 26.9031C216.187 25.5237 217.81 24.8237 219.856 24.8237C221.842 24.8237 223.422 25.4923 224.555 26.8121C225.693 28.1385 226.27 30.1183 226.27 32.698C226.27 35.3093 225.727 37.3152 224.656 38.6568C223.593 39.9887 221.994 40.6652 219.903 40.6652ZM220.158 20.1411C216.193 20.1411 213.043 21.303 210.798 23.5946C208.554 25.8865 207.416 29.058 207.416 33.0221C207.416 36.787 208.526 39.8155 210.717 42.0218C212.908 44.229 215.889 45.3471 219.578 45.3471C223.422 45.3471 226.509 44.1691 228.753 41.8457C230.998 39.5246 232.135 36.3833 232.135 32.5118C232.135 28.6879 231.068 25.6369 228.962 23.4452C226.856 21.2525 223.893 20.1411 220.158 20.1411ZM198.183 20.141C195.486 20.141 193.255 20.8309 191.55 22.1913C189.836 23.5596 188.966 25.3545 188.966 27.5262C188.966 28.6551 189.154 29.658 189.523 30.5083C189.895 31.3619 190.47 32.113 191.234 32.7435C191.993 33.369 193.163 34.0243 194.715 34.6907C196.019 35.2273 196.992 35.6815 197.61 36.0393C198.214 36.3898 198.642 36.7425 198.884 37.0857C199.119 37.4216 199.239 37.8812 199.239 38.4489C199.239 40.0643 198.029 40.8503 195.54 40.8503C194.616 40.8503 193.563 40.6578 192.409 40.2775C191.255 39.8978 190.176 39.352 189.203 38.6519L188.966 38.4816V43.9945L189.053 44.0351C189.863 44.4091 190.885 44.7243 192.089 44.9727C193.291 45.221 194.382 45.3476 195.331 45.3476C198.258 45.3476 200.615 44.6542 202.335 43.2859C204.065 41.9081 204.943 40.071 204.943 37.8238C204.943 36.203 204.471 34.8128 203.54 33.6919C202.615 32.5798 201.011 31.5592 198.773 30.6568C196.99 29.9412 195.848 29.3472 195.377 28.8914C194.923 28.4508 194.692 27.8279 194.692 27.039C194.692 26.3397 194.977 25.7795 195.561 25.3256C196.15 24.8695 196.97 24.6377 197.998 24.6377C198.952 24.6377 199.928 24.7883 200.899 25.0836C201.869 25.3789 202.721 25.7744 203.433 26.2584L203.666 26.4183V21.1886L203.577 21.15C202.92 20.8686 202.055 20.6279 201.004 20.4325C199.958 20.239 199.008 20.141 198.183 20.141ZM174.037 40.6652C171.96 40.6652 170.32 39.976 169.166 38.6184C168.004 37.2539 167.416 35.3093 167.416 32.8372C167.416 30.2874 168.004 28.2917 169.167 26.9031C170.322 25.5237 171.944 24.8237 173.991 24.8237C175.976 24.8237 177.557 25.4923 178.689 26.8121C179.827 28.1385 180.404 30.1183 180.404 32.698C180.404 35.3093 179.861 37.3152 178.79 38.6568C177.727 39.9887 176.129 40.6652 174.037 40.6652ZM174.293 20.1411C170.327 20.1411 167.177 21.303 164.933 23.5946C162.689 25.8865 161.55 29.058 161.55 33.0221C161.55 36.7886 162.661 39.8155 164.852 42.0218C167.043 44.229 170.024 45.3471 173.713 45.3471C177.556 45.3471 180.644 44.1691 182.888 41.8457C185.132 39.5246 186.27 36.3833 186.27 32.5118C186.27 28.6879 185.202 25.6369 183.097 23.4452C180.99 21.2525 178.028 20.1411 174.293 20.1411ZM152.858 24.8847V20.7205H147.201V44.7668H152.858V32.4663C152.858 30.3745 153.332 28.6563 154.267 27.3584C155.191 26.0761 156.423 25.4262 157.926 25.4262C158.435 25.4262 159.007 25.5102 159.627 25.6764C160.24 25.8417 160.684 26.0209 160.946 26.2096L161.183 26.3818V20.6793L161.092 20.6399C160.565 20.416 159.82 20.3031 158.877 20.3031C157.455 20.3031 156.183 20.7598 155.094 21.659C154.137 22.4494 153.446 23.5332 152.918 24.8847H152.858ZM137.071 20.141C134.477 20.141 132.162 20.6977 130.193 21.7945C128.22 22.8938 126.694 24.4635 125.656 26.4595C124.623 28.4508 124.098 30.7767 124.098 33.3703C124.098 35.6422 124.607 37.7274 125.612 39.5648C126.618 41.4054 128.043 42.8454 129.845 43.8442C131.645 44.8417 133.725 45.3476 136.029 45.3476C138.717 45.3476 141.012 44.81 142.852 43.7503L142.927 43.7075V38.5254L142.689 38.6989C141.855 39.306 140.924 39.7906 139.922 40.1398C138.922 40.4887 138.01 40.6651 137.211 40.6651C134.992 40.6651 133.21 39.9705 131.917 38.6015C130.62 37.2303 129.963 35.3054 129.963 32.8828C129.963 30.4449 130.649 28.4705 131.999 27.0133C133.346 25.5607 135.131 24.8238 137.305 24.8238C139.164 24.8238 140.976 25.4535 142.69 26.6968L142.927 26.869V21.4088L142.85 21.3656C142.205 21.0047 141.325 20.7065 140.233 20.4804C139.146 20.2549 138.082 20.141 137.071 20.141ZM120.202 20.7206H114.546V44.7669H120.202V20.7206ZM117.432 10.4766C116.501 10.4766 115.689 10.7935 115.022 11.4215C114.352 12.0514 114.012 12.8443 114.012 13.78C114.012 14.7011 114.348 15.4795 115.011 16.0926C115.67 16.7038 116.485 17.0137 117.432 17.0137C118.379 17.0137 119.196 16.7038 119.863 16.0935C120.535 15.4795 120.875 14.7011 120.875 13.78C120.875 12.877 120.544 12.092 119.891 11.4469C119.239 10.803 118.411 10.4766 117.432 10.4766ZM103.319 18.9464V44.7668H109.091V11.213H101.102L90.9463 36.1357L81.0912 11.213H72.7764V44.7668H78.2011V18.9439H78.3876L88.7943 44.7668H92.8881L103.132 18.9464H103.319Z" fill="#706D6E"/>
<path d="M26.6095 26.6095H0V0H26.6095V26.6095Z" fill="#F1511B"/>
<path d="M55.99 26.6095H29.3809V0H55.99V26.6095Z" fill="#80CC28"/>
<path d="M26.6088 56.0001H0V29.3906H26.6088V56.0001Z" fill="#00ADEF"/>
<path d="M55.99 56.0001H29.3809V29.3906H55.99V56.0001Z" fill="#FBBC09"/>
</svg>
