<svg width="253" height="61" viewBox="0 0 253 61" fill="none" xmlns="http://www.w3.org/2000/svg">
<path d="M247.02 0.804688L233.222 32.5079L228.033 20.4953H222.422L230.954 40.1447H235.49L252.593 0.804688H247.02Z" fill="#D52B1E"/>
<path d="M187.833 59.6706H198.94V37.8334C198.94 32.8384 201.631 29.3296 205.628 29.3296C209.471 29.3296 211.47 32.2192 211.47 36.3885V59.6706H222.578V34.1181C222.578 25.4493 217.735 19.3398 209.894 19.3398C204.898 19.3398 201.4 21.6515 198.787 25.8621H198.556V20.4957H187.794L187.833 59.6706ZM166.001 19.4224C154.394 19.4224 146.63 28.3802 146.63 40.1863C146.63 51.9099 154.394 60.9503 166.001 60.9503C177.609 60.9503 185.373 51.9099 185.373 40.1863C185.411 28.3802 177.609 19.4224 166.001 19.4224ZM165.924 52.1163C160.659 52.1163 157.853 47.3691 157.853 40.1863C157.853 32.921 160.62 28.2563 165.924 28.2563C171.19 28.2563 174.111 32.921 174.111 40.1863C174.15 47.3691 171.229 52.1163 165.924 52.1163ZM114.959 59.6706H146.169V50.2587H128.489V50.011L145.4 29.6599V20.4544H114.959V29.9076H132.063V30.1552L114.959 50.6715V59.6706ZM100.7 59.6706H111.885V20.4957H100.7V59.6706ZM74.7563 59.6706H85.9025V41.6724C85.9025 33.4989 90.4763 29.8663 97.4331 30.8983H97.6637V20.5782C97.0872 20.3306 96.4338 20.2893 95.396 20.2893C91.0528 20.2893 88.1318 22.4358 85.6335 27.0179H85.4029V20.4957H74.7563V59.6706ZM54.3088 52.1576C49.3892 52.1576 46.3912 48.7313 45.8147 43.4475H72.1043C72.1812 35.0263 70.1057 28.2976 65.7625 24.087C62.6877 21.0323 58.652 19.3398 53.5017 19.3398C42.5093 19.3398 34.8991 28.2976 34.8991 40.0212C34.8991 51.8273 42.1633 60.8264 54.232 60.8264C58.8058 60.8264 62.4187 59.5055 65.4166 57.3176C68.6067 54.9646 70.9128 51.4971 71.5278 48.0708H60.8428C59.8051 50.6302 57.5758 52.1576 54.3088 52.1576ZM53.7323 27.8848C57.6527 27.8848 60.3432 31.0221 60.8044 35.6042H45.8916C46.7756 30.9808 49.1201 27.8848 53.7323 27.8848ZM12.6836 59.6706H24.3679L37.0515 20.4957H25.8668L18.7563 45.6766H18.6026L11.4921 20.4957H0L12.6836 59.6706ZM100.7 6.54297H111.885V17.1933H100.7V6.54297Z" fill="black"/>
</svg>
